<?xml version="1.0" standalone="no"?>
<!DOCTYPE svg PUBLIC "-//W3C//DTD SVG 20010904//EN"
 "http://www.w3.org/TR/2001/REC-SVG-20010904/DTD/svg10.dtd">
<svg version="1.0" xmlns="http://www.w3.org/2000/svg"
 width="1280.000000pt" height="1280.000000pt" viewBox="0 0 1280.000000 1280.000000"
 preserveAspectRatio="xMidYMid meet">
<metadata>
Created by potrace 1.11, written by Peter Selinger 2001-2013
</metadata>
<g transform="translate(0.000000,1280.000000) scale(0.100000,-0.100000)"
fill="#000000" stroke="none">
<path d="M1889 12616 c-2 -2 -34 -6 -70 -10 -36 -3 -90 -10 -120 -16 -30 -6
-65 -13 -79 -15 -235 -44 -539 -175 -750 -323 -293 -207 -510 -460 -665 -777
-55 -113 -123 -292 -139 -367 -3 -12 -10 -41 -15 -63 -6 -22 -13 -56 -16 -75
-7 -37 -9 -48 -22 -145 -10 -76 -11 -8757 0 -8845 9 -83 20 -143 47 -265 31
-137 124 -367 210 -515 41 -72 138 -213 189 -275 58 -70 262 -265 336 -321
220 -167 500 -302 744 -360 36 -8 75 -18 86 -20 26 -6 124 -22 195 -32 73 -9
9075 -9 9165 1 59 6 173 27 285 53 111 25 321 107 450 176 80 42 245 147 284
179 6 5 22 18 36 30 75 60 193 173 249 236 71 81 201 253 201 267 0 5 7 17 15
25 25 28 120 222 163 331 37 95 64 185 76 251 2 13 5 24 6 24 4 0 30 145 38
215 10 88 9 8768 -1 8850 -4 36 -10 73 -13 82 -3 9 -7 32 -9 50 -16 138 -110
405 -201 577 -261 487 -708 847 -1244 1002 -41 12 -84 22 -95 24 -11 1 -38 7
-60 13 -22 6 -63 14 -91 17 -28 3 -61 9 -75 13 -24 7 -9102 15 -9110 8z"/>
</g>
</svg>
